# xmcd CD database file
#
# Track frame offsets:
#	150
#	16657
#	32348
#	47736
#	62450
#	77130
#	91616
#	106583
#	119479
#	132418
#	145516
#	155792
#	167123
#	182801
#	196746
#	210571
#
# Disc length: 3001 seconds
#
# Revision: 1
# Processed by: cddbd v1.5.1PL0 Copyright (c) Steve Scherf et al.
# Submitted via: CDex 1.51
#
DISCID=c40bb710
DTITLE=Glen Miller - The Only Glen Miller Album You'll Ever Need
DYEAR=2004
DGENRE=Jazz
TTITLE0=In The Mood
TTITLE1=Chattanooga Choo Choo
TTITLE2=Moonlight Serenade
TTITLE3=A String Of Pearls
TTITLE4=Pennsylvania 6-5000
TTITLE5=Don't Sit Under The Apple Tree (With Anyone Else But Me)
TTITLE6=American Patrol
TTITLE7=Little Brown Jug
TTITLE8=Stairway To The Stars
TTITLE9=Blueberry Hill
TTITLE10=Danny Boy
TTITLE11=Over The Rainbow
TTITLE12=Tuxedo Junction
TTITLE13=That Old Black Magic
TTITLE14=Rhapsody In Blue
TTITLE15=My Blue Heaven
EXTD=YEAR: 2004
EXTT0=
EXTT1=
EXTT2=
EXTT3=
EXTT4=
EXTT5=
EXTT6=
EXTT7=
EXTT8=
EXTT9=
EXTT10=
EXTT11=
EXTT12=
EXTT13=
EXTT14=
EXTT15=
PLAYORDER=
